<?xml version="1.0" encoding="utf-8"?>
<!-- Generator: Adobe Illustrator 16.0.0, SVG Export Plug-In . SVG Version: 6.00 Build 0)  -->
<!DOCTYPE svg PUBLIC "-//W3C//DTD SVG 1.1//EN" "http://www.w3.org/Graphics/SVG/1.1/DTD/svg11.dtd">
<svg version="1.1" id="Capa_1" xmlns="http://www.w3.org/2000/svg" xmlns:xlink="http://www.w3.org/1999/xlink" x="0px" y="0px"
	 width="170.336px" height="47.242px" viewBox="0 0 170.336 47.242" enable-background="new 0 0 170.336 47.242"
	 xml:space="preserve">
<g id="logo_Araca">
	<g>
		<linearGradient id="SVGID_1_" gradientUnits="userSpaceOnUse" x1="30.4253" y1="17.3965" x2="54.2534" y2="17.3965">
			<stop  offset="0" style="stop-color:#92BB58"/>
			<stop  offset="0.3357" style="stop-color:#92BB58"/>
			<stop  offset="0.7082" style="stop-color:#7CA34C"/>
			<stop  offset="1" style="stop-color:#7CA34C"/>
		</linearGradient>
		<path fill="url(#SVGID_1_)" d="M30.425-0.007c1.784,5.842,3.766,10.761,5.541,14.658c2.83,6.216,5.474,10.607,6.221,11.828
			c1.886,3.09,4.24,6.342,5.703,8.321l0.08-0.011l6.283-1.004c-0.406-0.376-0.97-0.906-1.627-1.556
			c-0.577-0.57-3.13-3.106-6.149-6.857c-4.507-5.602-7.623-10.895-7.989-11.523c-2.118-3.63-4.483-8.265-6.576-13.856H30.425z"/>
		<linearGradient id="SVGID_2_" gradientUnits="userSpaceOnUse" x1="31.3936" y1="28.7778" x2="52.9336" y2="28.7778">
			<stop  offset="0" style="stop-color:#3B6895"/>
			<stop  offset="0.1095" style="stop-color:#3B6895"/>
			<stop  offset="0.7691" style="stop-color:#223754"/>
			<stop  offset="1" style="stop-color:#223754"/>
		</linearGradient>
		<path fill="url(#SVGID_2_)" d="M31.394,10.314c0.456,1.725,1.118,4.105,1.993,6.917c1.853,5.953,2.331,7.452,6.21,16.695
			c3.688,8.788,7.205,13.315,7.205,13.315h6.133c-3.355-4.011-6.824-8.748-10.086-14.259c-4.136-6.984-6.586-12.927-7.777-16.022
			c-1.02-2.658-1.771-4.943-2.298-6.646H31.394z"/>
		<linearGradient id="SVGID_3_" gradientUnits="userSpaceOnUse" x1="27.6582" y1="22.7529" x2="39.9614" y2="22.7529">
			<stop  offset="0" style="stop-color:#92BB58"/>
			<stop  offset="0.3357" style="stop-color:#92BB58"/>
			<stop  offset="0.7082" style="stop-color:#7CA34C"/>
			<stop  offset="1" style="stop-color:#7CA34C"/>
		</linearGradient>
		<path fill="url(#SVGID_3_)" d="M27.658,4.275c0.018,3.197,0.147,6.593,0.424,10.162c0.313,3.995,0.685,8.656,1.911,14.528
			c0.674,3.231,1.732,7.433,3.448,12.26l6.521,0.006c-1.789-3.945-3.566-8.359-5.197-13.22c-1.084-3.228-2.866-8.939-4.383-16.26
			c-0.624-3.01-1.053-5.574-1.342-7.477H27.658z"/>
		<linearGradient id="SVGID_4_" gradientUnits="userSpaceOnUse" x1="0.02" y1="17.3965" x2="23.8477" y2="17.3965">
			<stop  offset="0" style="stop-color:#7CA34C"/>
			<stop  offset="0.2918" style="stop-color:#7CA34C"/>
			<stop  offset="0.6643" style="stop-color:#92BB58"/>
			<stop  offset="1" style="stop-color:#92BB58"/>
		</linearGradient>
		<path fill="url(#SVGID_4_)" d="M22.36-0.007c-2.092,5.592-4.457,10.227-6.575,13.856c-0.367,0.629-3.484,5.922-7.989,11.523
			c-3.018,3.751-5.572,6.287-6.148,6.857c-0.661,0.649-1.221,1.18-1.628,1.556l6.285,1.004L6.384,34.8
			c1.462-1.979,3.816-5.231,5.703-8.321c0.744-1.221,3.39-5.612,6.22-11.828c1.774-3.897,3.758-8.816,5.541-14.658H22.36z"/>
		<linearGradient id="SVGID_5_" gradientUnits="userSpaceOnUse" x1="1.3408" y1="28.7778" x2="22.877" y2="28.7778">
			<stop  offset="0" style="stop-color:#223754"/>
			<stop  offset="0.2309" style="stop-color:#223754"/>
			<stop  offset="0.8905" style="stop-color:#3B6895"/>
			<stop  offset="1" style="stop-color:#3B6895"/>
		</linearGradient>
		<path fill="url(#SVGID_5_)" d="M21.499,10.314c-0.523,1.703-1.276,3.988-2.296,6.646c-1.19,3.096-3.641,9.038-7.776,16.022
			C8.162,38.494,4.695,43.231,1.341,47.242h6.131c0,0,3.517-4.527,7.204-13.315c3.88-9.243,4.359-10.742,6.212-16.695
			c0.874-2.812,1.533-5.192,1.989-6.917H21.499z"/>
		<linearGradient id="SVGID_6_" gradientUnits="userSpaceOnUse" x1="14.313" y1="22.7529" x2="26.6143" y2="22.7529">
			<stop  offset="0" style="stop-color:#7CA34C"/>
			<stop  offset="0.2918" style="stop-color:#7CA34C"/>
			<stop  offset="0.6643" style="stop-color:#92BB58"/>
			<stop  offset="1" style="stop-color:#92BB58"/>
		</linearGradient>
		<path fill="url(#SVGID_6_)" d="M25.234,4.275c-0.289,1.902-0.718,4.467-1.342,7.477c-1.517,7.32-3.3,13.032-4.383,16.26
			c-1.632,4.86-3.41,9.274-5.196,13.22l6.516-0.006c1.722-4.827,2.778-9.028,3.451-12.26c1.226-5.872,1.596-10.533,1.911-14.528
			c0.278-3.569,0.407-6.965,0.424-10.162H25.234z"/>
	</g>
	<g>
		<path fill="#223754" d="M74.299,15.24l7.54,16.375h-2.734l-2.447-5.344h-6.86l-2.529,5.344h-1.345l7.711-16.375H74.299z
			 M70.266,25.237h5.897l-2.907-6.333L70.266,25.237z"/>
		<path fill="#223754" d="M85.344,15.607h5.535c0.965,0,1.811,0.104,2.533,0.31c0.725,0.208,1.328,0.497,1.813,0.868
			c0.48,0.371,0.847,0.813,1.09,1.32c0.246,0.512,0.369,1.066,0.369,1.674c0,0.498-0.093,0.963-0.281,1.396
			c-0.188,0.433-0.455,0.822-0.799,1.172c-0.344,0.348-0.758,0.652-1.242,0.907c-0.48,0.259-1.015,0.451-1.598,0.591l5.828,7.77
			h-3.114l-5.563-7.525h-1.884v7.525h-2.687V15.607z M88.031,23.283h1.551c0.608,0,1.163-0.079,1.673-0.242
			c0.508-0.16,0.949-0.388,1.325-0.684c0.38-0.293,0.671-0.651,0.882-1.072c0.209-0.424,0.316-0.895,0.316-1.414
			c0-0.476-0.084-0.914-0.254-1.314c-0.169-0.404-0.402-0.75-0.701-1.037c-0.299-0.286-0.655-0.511-1.068-0.671
			c-0.412-0.161-0.867-0.244-1.357-0.244h-2.366V23.283z"/>
		<path fill="#223754" d="M108.461,15.24l7.537,16.375h-2.734l-2.447-5.344h-6.859l-2.53,5.344h-1.345l7.713-16.375H108.461z
			 M104.428,25.237h5.893l-2.906-6.333L104.428,25.237z"/>
		<path fill="#223754" d="M121.963,23.662c0,1.127,0.166,2.135,0.505,3.023c0.337,0.887,0.797,1.641,1.39,2.258
			c0.59,0.617,1.288,1.088,2.097,1.413c0.807,0.324,1.683,0.488,2.626,0.488c0.558,0,1.097-0.109,1.621-0.327
			c0.52-0.22,1.004-0.502,1.453-0.852c0.447-0.348,0.847-0.74,1.2-1.183c0.353-0.44,0.643-0.886,0.874-1.34l1.125,0.726
			c-0.327,0.533-0.717,1.051-1.167,1.549c-0.446,0.501-0.968,0.938-1.556,1.317c-0.592,0.378-1.258,0.685-2,0.913
			c-0.742,0.229-1.574,0.345-2.494,0.345c-0.881,0-1.712-0.101-2.492-0.304c-0.783-0.203-1.499-0.487-2.154-0.85
			c-0.656-0.365-1.242-0.803-1.758-1.318c-0.518-0.512-0.955-1.078-1.311-1.695c-0.357-0.615-0.633-1.275-0.822-1.98
			c-0.191-0.705-0.288-1.434-0.288-2.184c0-0.751,0.102-1.48,0.292-2.188c0.199-0.71,0.477-1.377,0.843-2.001
			c0.36-0.624,0.81-1.196,1.337-1.718c0.529-0.522,1.123-0.967,1.785-1.337c0.664-0.374,1.391-0.661,2.177-0.869
			c0.791-0.209,1.636-0.31,2.53-0.31c0.851,0,1.633,0.113,2.351,0.344c0.716,0.23,1.371,0.535,1.963,0.912
			c0.595,0.38,1.123,0.819,1.583,1.318c0.459,0.498,0.854,1.014,1.182,1.551l-1.16,0.781c-0.676-1.294-1.423-2.245-2.25-2.851
			c-0.83-0.604-1.779-0.907-2.852-0.907c-0.926,0-1.791,0.168-2.596,0.506c-0.806,0.337-1.509,0.82-2.104,1.447
			c-0.597,0.629-1.068,1.391-1.413,2.286C122.134,21.524,121.963,22.535,121.963,23.662z"/>
		<path fill="#223754" d="M146.045,15.24l7.539,16.375h-2.736l-2.447-5.344h-6.859l-2.528,5.344h-1.343l7.708-16.375H146.045z
			 M142.011,25.237h5.893l-2.905-6.333L142.011,25.237z"/>
		<path fill="#223754" d="M157.088,15.607h5.537c0.966,0,1.809,0.104,2.535,0.31c0.723,0.208,1.326,0.497,1.809,0.868
			c0.484,0.371,0.846,0.813,1.09,1.32c0.25,0.512,0.369,1.066,0.369,1.674c0,0.498-0.094,0.963-0.28,1.396
			c-0.189,0.433-0.454,0.822-0.798,1.172c-0.346,0.348-0.76,0.652-1.244,0.907c-0.482,0.259-1.014,0.451-1.596,0.591l5.826,7.77
			h-3.114l-5.56-7.525h-1.886v7.525h-2.688V15.607z M159.777,23.283h1.551c0.604,0,1.161-0.079,1.671-0.242
			c0.51-0.16,0.952-0.388,1.327-0.684c0.376-0.293,0.668-0.651,0.881-1.072c0.21-0.424,0.313-0.895,0.313-1.414
			c0-0.476-0.082-0.914-0.25-1.314c-0.169-0.404-0.402-0.75-0.701-1.037c-0.301-0.286-0.656-0.511-1.069-0.671
			c-0.413-0.161-0.868-0.244-1.356-0.244h-2.366V23.283z"/>
	</g>
</g>
</svg>
